<?xml version="1.0" encoding="utf-8"?>
<!-- Generator: Adobe Illustrator 18.0.0, SVG Export Plug-In . SVG Version: 6.00 Build 0)  -->
<!DOCTYPE svg PUBLIC "-//W3C//DTD SVG 1.1//EN" "http://www.w3.org/Graphics/SVG/1.1/DTD/svg11.dtd">
<svg version="1.1" id="Capa_1" xmlns="http://www.w3.org/2000/svg" xmlns:xlink="http://www.w3.org/1999/xlink" x="0px" y="0px"
	 viewBox="0 0 702.2 803.7" enable-background="new 0 0 702.2 803.7" xml:space="preserve">
<g>
	<g>
		<path fill="#161921" d="M535.6,760.1c0,24.1-19.5,43.6-43.6,43.6H210.2c-24.1,0-43.6-19.5-43.6-43.6v-30.5
			c0-24.1,19.5-43.6,43.6-43.6H492c24.1,0,43.6,19.5,43.6,43.6V760.1z"/>
		<path fill="#90AFC2" d="M266.9,744.9c0,16.8-13.7,30.5-30.5,30.5c-16.8,0-30.5-13.7-30.5-30.5c0-16.9,13.7-30.5,30.5-30.5
			C253.2,714.4,266.9,728,266.9,744.9z"/>
		<path fill="#90AFC2" d="M381.6,744.9c0,16.8-13.7,30.5-30.5,30.5c-16.8,0-30.5-13.7-30.5-30.5c0-16.9,13.7-30.5,30.5-30.5
			C368,714.4,381.6,728,381.6,744.9z"/>
		<path fill="#90AFC2" d="M496.4,744.9c0,16.8-13.7,30.5-30.5,30.5c-16.8,0-30.5-13.7-30.5-30.5c0-16.9,13.7-30.5,30.5-30.5
			C482.7,714.4,496.4,728,496.4,744.9z"/>
	</g>
	<g>
		<g>
			<g>
				<path fill="#8CB22D" d="M15.9,680.6C-6.6,620.4-5.2,568.1,20,525.1c41.7-71.1,133.2-85.9,137-86.5l9.5,61.9l-4.8-30.9l4.9,30.9
					c-0.7,0.1-66.4,11.2-92.8,56.5C58.8,583,59,617.1,74.6,658.7L15.9,680.6z"/>
			</g>
			<path fill="#161921" d="M103.4,685.2c0,27.2-22.1,49.3-49.3,49.3l0,0c-27.2,0-49.3-22.1-49.3-49.3l0,0
				c0-27.2,22.1-49.3,49.3-49.3l0,0C81.4,635.9,103.4,658,103.4,685.2L103.4,685.2z"/>
		</g>
		<g>
			<g>
				<path fill="#8CB22D" d="M686.3,680.6c22.5-60.2,21.1-112.5-4.1-155.5c-41.7-71.1-133.2-85.9-137-86.5l-9.5,61.9l4.8-30.9
					l-4.9,30.9c0.7,0.1,66.4,11.2,92.8,56.5c15,25.9,14.8,60.1-0.7,101.6L686.3,680.6z"/>
			</g>
			<path fill="#161921" d="M598.8,685.2c0,27.2,22.1,49.3,49.3,49.3l0,0c27.2,0,49.3-22.1,49.3-49.3l0,0c0-27.2-22.1-49.3-49.3-49.3
				l0,0C620.9,635.9,598.8,658,598.8,685.2L598.8,685.2z"/>
		</g>
		<g>
			<path fill="#9BCA3D" d="M598,627.1c0,24.1-19.5,43.6-43.6,43.6H147.8c-24.1,0-43.6-19.5-43.6-43.6V464.4
				c0-24.1,19.5-43.6,43.6-43.6h406.7c24.1,0,43.6,19.5,43.6,43.6V627.1z"/>
			<path fill="#8CB22D" d="M523.8,587.2c0,11.2-16.5,20.4-36.8,20.4H227.3c-20.3,0-36.8-9.1-36.8-20.4v-82.8
				c0-11.2,16.5-20.4,36.8-20.4h259.8c20.3,0,36.8,9.1,36.8,20.4V587.2z"/>
		</g>
	</g>
	<g>
		<g>
			<polygon fill="#DEDFE0" points="216,41.4 249.6,152.7 276.3,130.7 			"/>
			<polygon fill="#DEDFE0" points="486.3,41.4 452.6,152.7 425.9,130.7 			"/>
			<g>
				<path fill="#C86A5D" d="M217.8,19.3c-12.2,0-22,9.9-22,22c0,12.2,9.9,22,22,22c12.2,0,22-9.9,22-22
					C239.8,29.2,229.9,19.3,217.8,19.3z"/>
				<path fill="#C86A5D" d="M484.4,19.3c-12.2,0-22,9.9-22,22c0,12.2,9.9,22,22,22c12.2,0,22-9.9,22-22
					C506.5,29.2,496.6,19.3,484.4,19.3z"/>
			</g>
		</g>
		<g>
			<rect x="225" y="362.9" fill="#82A025" width="246.9" height="45.8"/>
			<g>
				<path fill="#9BCA3D" d="M560.4,342.9c0.1-2.6,0.2-5.3,0.2-7.9c0-126.9-93.8-229.8-209.5-229.8C235.4,105.2,141.6,208,141.6,335
					c0,2.7,0.1,5.3,0.2,7.9H560.4z"/>
				<g>
					<path fill="#F8F8F8" d="M432.9,239c0,45.2-36.6,81.8-81.8,81.8c-45.2,0-81.8-36.6-81.8-81.8c0-45.1,36.6-81.8,81.8-81.8
						C396.3,157.2,432.9,193.8,432.9,239z"/>
					<path fill="#161921" d="M409.7,239c0,32.4-26.2,58.6-58.6,58.6c-32.3,0-58.6-26.2-58.6-58.6c0-32.3,26.2-58.6,58.6-58.6
						C383.5,180.4,409.7,206.7,409.7,239z"/>
					<path fill="#90AFC2" d="M380.7,239c0,16.3-13.2,29.6-29.6,29.6c-16.3,0-29.6-13.2-29.6-29.6c0-16.3,13.2-29.6,29.6-29.6
						C367.4,209.4,380.7,222.7,380.7,239z"/>
				</g>
				<path fill="#82A025" d="M268.9,123.5c0,0,69.2,37.1,159.6-2.1C428.6,121.4,348.7,84.6,268.9,123.5z"/>
			</g>
		</g>
	</g>
</g>
</svg>
